<svg version="1.1" id="Layer_1" xmlns:x="ns_extend;" xmlns:i="ns_ai;" xmlns:graph="ns_graphs;" xmlns="http://www.w3.org/2000/svg" xmlns:xlink="http://www.w3.org/1999/xlink" x="0px" y="0px" viewBox="0 0 71.2 59.5" style="enable-background:new 0 0 71.2 59.5;" xml:space="preserve">
 <style type="text/css">
  .st0{fill:#231F20;}
 </style>
 <metadata>
  <sfw xmlns="ns_sfw;">
   <slices>
   </slices>
   <sliceSourceBounds bottomLeftOrigin="true" height="59.5" width="71.2" x="287.6" y="-187.5">
   </sliceSourceBounds>
  </sfw>
 </metadata>
 <g>
  <g>
   <path class="st0" d="M24.9,51.3c0,0-1.1-2.9-2.6-4.1c-1.5-1.1,0.5-1.3,0.5-1.3s1.8-1.1,2.4-0.2c0,0-3.6-6.3-2.6-9.2
			c0,0-18.5-6.5-1-9.6l1.1-9.4c0,0,1.8-3.1,3.7-2.9c0,0,12.2-0.5,13.8-0.2l1.1,0.3c0,0,0.2-0.7,3.4-0.2c0,0,2.4-1.1,4.4,12
			c0,0,20,3.2-1,10.1c0,0-0.3,4.9-2.4,7.9c0,0,4.9,1.1,2.8,2.4c0,0-1.9,1.6-2.3,4.1c0,0,14.7,2.5,17,6.8c4.9-6.1,7.9-13.9,7.9-22.4
			C71.2,15.9,55.3,0,35.6,0C15.9,0,0,15.9,0,35.6c0,9.2,3.5,17.5,9.2,23.8C10.6,57.7,15.4,52.8,24.9,51.3z">
   </path>
  </g>
 </g>
</svg>